<svg width="9" height="9" viewBox="0 0 9 9" fill="none" xmlns="http://www.w3.org/2000/svg">
<path d="M9 4.5C9 5.69347 8.52589 6.83807 7.68198 7.68198C6.83807 8.52589 5.69347 9 4.5 9C3.30653 9 2.16193 8.52589 1.31802 7.68198C0.474106 6.83807 0 5.69347 0 4.5C0 3.30653 0.474106 2.16193 1.31802 1.31802C2.16193 0.474106 3.30653 0 4.5 0C5.69347 0 6.83807 0.474106 7.68198 1.31802C8.52589 2.16193 9 3.30653 9 4.5ZM4.5 2.25C4.4289 2.25004 4.3586 2.26497 4.29363 2.29383C4.22866 2.3227 4.17045 2.36485 4.12276 2.41758C4.07506 2.4703 4.03894 2.53243 4.01673 2.59997C3.99451 2.6675 3.98668 2.73894 3.99375 2.80969L4.19062 4.78237C4.19724 4.85987 4.2327 4.93206 4.28999 4.98467C4.34728 5.03728 4.42222 5.06647 4.5 5.06647C4.57778 5.06647 4.65272 5.03728 4.71001 4.98467C4.7673 4.93206 4.80276 4.85987 4.80938 4.78237L5.00625 2.80969C5.01332 2.73894 5.00549 2.6675 4.98327 2.59997C4.96106 2.53243 4.92494 2.4703 4.87724 2.41758C4.82955 2.36485 4.77134 2.3227 4.70637 2.29383C4.6414 2.26497 4.5711 2.25004 4.5 2.25ZM4.50112 5.625C4.35194 5.625 4.20887 5.68426 4.10338 5.78975C3.99789 5.89524 3.93862 6.03832 3.93862 6.1875C3.93862 6.33668 3.99789 6.47976 4.10338 6.58525C4.20887 6.69074 4.35194 6.75 4.50112 6.75C4.65031 6.75 4.79338 6.69074 4.89887 6.58525C5.00436 6.47976 5.06362 6.33668 5.06362 6.1875C5.06362 6.03832 5.00436 5.89524 4.89887 5.78975C4.79338 5.68426 4.65031 5.625 4.50112 5.625Z" fill="#BE464C"/>
</svg>
