<svg width="12" height="12" viewBox="0 0 12 12" fill="none" xmlns="http://www.w3.org/2000/svg">
<path fill-rule="evenodd" clip-rule="evenodd" d="M6 2.46975L10.5 6.96975V10.125C10.5 10.4234 10.3815 10.7095 10.1705 10.9205C9.95952 11.1315 9.67337 11.25 9.375 11.25H2.625C2.32663 11.25 2.04048 11.1315 1.8295 10.9205C1.61853 10.7095 1.5 10.4234 1.5 10.125V6.96975L6 2.46975ZM9.75 1.875V4.5L8.25 3V1.875C8.25 1.77554 8.28951 1.68016 8.35983 1.60984C8.43016 1.53951 8.52554 1.5 8.625 1.5H9.375C9.47446 1.5 9.56984 1.53951 9.64017 1.60984C9.71049 1.68016 9.75 1.77554 9.75 1.875Z" fill="#263F59"/>
<path fill-rule="evenodd" clip-rule="evenodd" d="M5.46974 1.12499C5.61038 0.984382 5.80111 0.905396 5.99999 0.905396C6.19886 0.905396 6.38959 0.984382 6.53024 1.12499L11.5155 6.10948C11.5859 6.1799 11.6255 6.2754 11.6255 6.37498C11.6255 6.47457 11.5859 6.57007 11.5155 6.64048C11.4451 6.7109 11.3496 6.75046 11.25 6.75046C11.1504 6.75046 11.0549 6.7109 10.9845 6.64048L5.99999 1.65524L1.01549 6.64048C0.945071 6.7109 0.849567 6.75046 0.749986 6.75046C0.650404 6.75046 0.5549 6.7109 0.484485 6.64048C0.41407 6.57007 0.374512 6.47457 0.374512 6.37498C0.374512 6.2754 0.41407 6.1799 0.484485 6.10948L5.46974 1.12499Z" fill="#263F59"/>
</svg>
