<svg width="12" height="12" viewBox="0 0 12 12" fill="none" xmlns="http://www.w3.org/2000/svg">
<g clip-path="url(#clip0_215_1115)">
<path d="M5.99997 0.75C5.60215 0.75 5.22061 0.908035 4.93931 1.18934C4.65801 1.47064 4.49997 1.85218 4.49997 2.25V3.75H3.74997V2.25C3.74997 1.65326 3.98702 1.08097 4.40898 0.65901C4.83094 0.237053 5.40323 0 5.99997 0C6.59671 0 7.169 0.237053 7.59096 0.65901C8.01292 1.08097 8.24997 1.65326 8.24997 2.25V3.75H7.49997V2.25C7.49997 1.85218 7.34194 1.47064 7.06063 1.18934C6.77933 0.908035 6.3978 0.75 5.99997 0.75ZM3.74997 3.75H2.51997C2.25063 3.75006 1.99024 3.84675 1.78614 4.0225C1.58204 4.19825 1.44776 4.4414 1.40772 4.70775L0.63747 9.8475C0.597561 10.1142 0.615645 10.3863 0.690488 10.6454C0.765331 10.9045 0.895172 11.1443 1.07115 11.3487C1.24714 11.553 1.46512 11.7169 1.71023 11.8293C1.95534 11.9417 2.22181 11.9999 2.49147 12H9.50772C9.77744 12.0001 10.044 11.9419 10.2892 11.8296C10.5344 11.7172 10.7525 11.5533 10.9285 11.3489C11.1046 11.1446 11.2345 10.9047 11.3094 10.6456C11.3843 10.3865 11.4024 10.1142 11.3625 9.8475L10.5915 4.70775C10.5514 4.44153 10.4173 4.19848 10.2133 4.02275C10.0094 3.84701 9.74919 3.75024 9.47997 3.75H8.24997V4.875C8.24997 4.97446 8.21046 5.06984 8.14014 5.14016C8.06981 5.21049 7.97443 5.25 7.87497 5.25C7.77551 5.25 7.68013 5.21049 7.60981 5.14016C7.53948 5.06984 7.49997 4.97446 7.49997 4.875V3.75H4.49997V4.875C4.49997 4.97446 4.46046 5.06984 4.39014 5.14016C4.31981 5.21049 4.22443 5.25 4.12497 5.25C4.02551 5.25 3.93013 5.21049 3.85981 5.14016C3.78948 5.06984 3.74997 4.97446 3.74997 4.875V3.75Z" fill="#263F59"/>
</g>
<defs>
<clipPath id="clip0_215_1115">
<rect width="12" height="12" fill="white"/>
</clipPath>
</defs>
</svg>
